<svg width="59" height="59" viewBox="0 0 59 59" fill="none" xmlns="http://www.w3.org/2000/svg">
<path d="M2.6665 29.5833C2.6665 16.8947 2.6665 10.5503 6.60836 6.60848C10.5502 2.66663 16.8945 2.66663 29.5832 2.66663C42.2718 2.66663 48.6161 2.66663 52.558 6.60848C56.4998 10.5503 56.4998 16.8947 56.4998 29.5833C56.4998 42.2719 56.4998 48.6162 52.558 52.5581C48.6161 56.5 42.2718 56.5 29.5832 56.5C16.8945 56.5 10.5502 56.5 6.60836 52.5581C2.6665 48.6162 2.6665 42.2719 2.6665 29.5833Z" stroke="#611F69" stroke-width="4" stroke-linejoin="round"/>
<path d="M32.0307 17.4625L34.5237 22.4899C34.8637 23.1897 35.7702 23.861 36.5352 23.9895L41.0538 24.7464C43.9435 25.232 44.6234 27.3458 42.5412 29.431L39.0282 32.973C38.4333 33.5728 38.1075 34.7297 38.2916 35.558L39.2974 39.9427C40.0906 43.4132 38.2633 44.7558 35.2178 42.9419L30.9824 40.414C30.2175 39.9569 28.9568 39.9569 28.1777 40.414L23.9424 42.9419C20.9111 44.7558 19.0696 43.3989 19.8628 39.9427L20.8686 35.558C21.0527 34.7297 20.7269 33.5728 20.132 32.973L16.619 29.431C14.5509 27.3458 15.2167 25.232 18.1064 24.7464L22.625 23.9895C23.3758 23.861 24.2823 23.1897 24.6223 22.4899L27.1154 17.4625C28.4752 14.7347 30.685 14.7347 32.0307 17.4625Z" stroke="#611F69" stroke-width="4" stroke-linecap="round" stroke-linejoin="round"/>
</svg>
