<svg width="68" height="68" viewBox="0 0 68 68" fill="none" xmlns="http://www.w3.org/2000/svg">
<path d="M34.88 8.5H33.1196C26.2186 8.5 22.7681 8.5 19.945 10.0655C17.1219 11.6309 15.4461 14.4735 12.0947 20.1588L10.4245 22.9921C7.25249 28.3729 5.6665 31.0632 5.6665 34C5.6665 36.9368 7.25249 39.6271 10.4245 45.0079L12.0947 47.8412C15.4462 53.5265 17.1219 56.3691 19.945 57.9345C22.7681 59.5 26.2186 59.5 33.1196 59.5H34.88C41.7811 59.5 45.2316 59.5 48.0547 57.9345C50.8778 56.3691 52.5535 53.5265 55.905 47.8412L57.5752 45.0079C60.7472 39.6271 62.3332 36.9368 62.3332 34C62.3332 31.0632 60.7472 28.3729 57.5752 22.9921L55.905 20.1588C52.5535 14.4735 50.8778 11.6309 48.0547 10.0655C45.2316 8.5 41.7811 8.5 34.88 8.5Z" stroke="#611F69" stroke-width="4" stroke-linecap="round"/>
<path d="M33.9746 45.3334H34" stroke="#611F69" stroke-width="4" stroke-linecap="round" stroke-linejoin="round"/>
<path d="M33.9751 36.8334L33.9751 22.6667" stroke="#611F69" stroke-width="4" stroke-linecap="round" stroke-linejoin="round"/>
</svg>
