<svg width="62" height="56" viewBox="0 0 62 56" fill="none" xmlns="http://www.w3.org/2000/svg">
<path d="M11.6767 37.3397C8.11357 39.4282 -1.22873 43.6927 4.46135 49.0289C7.24091 51.6357 10.3366 53.5 14.2287 53.5L36.4376 53.5C40.3297 53.5 43.4254 51.6357 46.205 49.0289C51.8951 43.6927 42.5528 39.4282 38.9896 37.3397C30.6342 32.4423 20.0322 32.4423 11.6767 37.3397Z" stroke="#611F69" stroke-width="4" stroke-linecap="round" stroke-linejoin="round"/>
<path d="M36.6667 13.8333C36.6667 20.0926 31.5926 25.1667 25.3333 25.1667C19.0741 25.1667 14 20.0926 14 13.8333C14 7.57411 19.0741 2.5 25.3333 2.5C31.5926 2.5 36.6667 7.57411 36.6667 13.8333Z" stroke="#611F69" stroke-width="4"/>
<path d="M45.1665 10.1905C45.1665 10.1905 47.9998 11.6679 49.4165 13.8333C49.4165 13.8333 53.6665 5.33333 59.3332 2.5" stroke="#611F69" stroke-width="4" stroke-linecap="round" stroke-linejoin="round"/>
</svg>
