<svg width="18" height="20" viewBox="0 0 18 20" fill="none" xmlns="http://www.w3.org/2000/svg">
<path d="M14 1.66666V3.33332M4 1.66666V3.33332" stroke="#210B24" stroke-width="1.5" stroke-linecap="round" stroke-linejoin="round"/>
<path d="M7.33333 14.1666L7.33332 11.1227C7.33332 10.9629 7.21938 10.8333 7.07882 10.8333H6.5M10.358 14.1666L11.4868 11.1243C11.5396 10.982 11.4274 10.8333 11.2672 10.8333H9.83333" stroke="#210B24" stroke-width="1.5" stroke-linecap="round"/>
<path d="M1.08301 10.2027C1.08301 6.57161 1.08301 4.75607 2.12644 3.62803C3.16987 2.5 4.84925 2.5 8.20801 2.5H9.79134C13.1501 2.5 14.8295 2.5 15.8729 3.62803C16.9163 4.75607 16.9163 6.57161 16.9163 10.2027V10.6306C16.9163 14.2617 16.9163 16.0773 15.8729 17.2053C14.8295 18.3333 13.1501 18.3333 9.79134 18.3333H8.20801C4.84925 18.3333 3.16987 18.3333 2.12644 17.2053C1.08301 16.0773 1.08301 14.2617 1.08301 10.6306V10.2027Z" stroke="#210B24" stroke-width="1.5" stroke-linecap="round" stroke-linejoin="round"/>
<path d="M4 6.66666H14" stroke="#210B24" stroke-width="1.5" stroke-linecap="round" stroke-linejoin="round"/>
</svg>
