<svg width="36" height="32" viewBox="0 0 36 32" fill="none" xmlns="http://www.w3.org/2000/svg">
<path d="M1.3335 9.33333C1.3335 11.5696 14.8438 17.6667 18.0002 17.6667C21.1566 17.6667 34.6668 11.5696 34.6668 9.33333C34.6668 7.09703 21.1566 1 18.0002 1C14.8438 1 1.3335 7.09703 1.3335 9.33333Z" stroke="#611F69" stroke-width="2" stroke-linecap="round" stroke-linejoin="round"/>
<path d="M8 14.3333L10.0881 23.9989C10.2311 24.6609 10.5612 25.2794 11.1118 25.674C14.8194 28.3309 21.1806 28.3309 24.8882 25.674C25.4388 25.2794 25.7689 24.6609 25.9119 23.9989L28 14.3333" stroke="#611F69" stroke-width="2" stroke-linecap="round" stroke-linejoin="round"/>
<path d="M33.167 11.8333C33.167 11.281 32.7193 10.8333 32.167 10.8333C31.6147 10.8333 31.167 11.281 31.167 11.8333H33.167ZM29.786 28.939L30.759 29.1702L29.786 28.939ZM34.548 28.939L35.5209 28.7079L35.5209 28.7079L34.548 28.939ZM31.167 11.8333L31.167 23.512H33.167V11.8333H31.167ZM30.759 29.1702C31.0072 28.1253 31.4328 27.176 31.8808 26.2993C32.2991 25.4808 32.8173 24.5877 33.0971 23.8793L31.2369 23.1446C31.003 23.7369 30.606 24.3987 30.0999 25.3892C29.6234 26.3215 29.1154 27.4354 28.8131 28.7079L30.759 29.1702ZM35.5209 28.7079C35.2186 27.4354 34.7105 26.3215 34.2341 25.3892C33.728 24.3987 33.331 23.7369 33.0971 23.1446L31.2369 23.8793C31.5167 24.5877 32.0349 25.4808 32.4532 26.2993C32.9012 27.176 33.3268 28.1253 33.575 29.1702L35.5209 28.7079ZM32.6927 30H31.6412V32H32.6927V30ZM28.8131 28.7079C28.6089 29.5674 28.5198 30.5864 29.2332 31.3019C29.5692 31.6389 29.9893 31.803 30.3776 31.8891C30.7648 31.975 31.1974 32 31.6412 32V30C31.2537 30 30.9891 29.9761 30.8106 29.9365C30.6331 29.8972 30.619 29.8592 30.6495 29.8898C30.6958 29.9363 30.6792 29.9671 30.6703 29.8724C30.6594 29.7556 30.6714 29.5385 30.759 29.1702L28.8131 28.7079ZM33.575 29.1702C33.6625 29.5385 33.6746 29.7556 33.6636 29.8724C33.6548 29.9671 33.6382 29.9363 33.6845 29.8898C33.715 29.8592 33.7008 29.8972 33.5234 29.9365C33.3449 29.9761 33.0802 30 32.6927 30V32C33.1366 32 33.5692 31.975 33.9564 31.8891C34.3447 31.803 34.7648 31.6389 35.1008 31.3019C35.8142 30.5864 35.7251 29.5674 35.5209 28.7079L33.575 29.1702Z" fill="#611F69"/>
</svg>
