<svg width="40" height="40" viewBox="0 0 40 40" fill="none" xmlns="http://www.w3.org/2000/svg">
<path d="M20 25L20 27.5" stroke="#611F69" stroke-width="2" stroke-linecap="round" stroke-linejoin="round"/>
<path d="M5 18.3334L5.25479 23.1055C5.52856 29.1284 5.66544 32.1398 7.59808 33.9866C9.53071 35.8334 12.5453 35.8334 18.5744 35.8334H21.4256C27.4547 35.8334 30.4693 35.8334 32.4019 33.9866C34.3346 32.1398 34.4714 29.1284 34.7452 23.1055L35 18.3334" stroke="#611F69" stroke-width="2" stroke-linecap="round" stroke-linejoin="round"/>
<path d="M4.74514 17.4051C7.5773 22.7907 13.9652 25 19.9998 25C26.0345 25 32.4224 22.7907 35.2545 17.4051C36.6065 14.8343 35.5828 10 32.2532 10L7.74651 10C4.41689 10 3.39322 14.8343 4.74514 17.4051Z" stroke="#611F69" stroke-width="2"/>
<path d="M26.6663 10L26.5192 9.48492C25.7858 6.91817 25.4191 5.6348 24.5462 4.90075C23.6732 4.16669 22.5137 4.16669 20.1946 4.16669H19.8047C17.4857 4.16669 16.3261 4.16669 15.4532 4.90075C14.5802 5.6348 14.2135 6.91817 13.4802 9.48492L13.333 10" stroke="#611F69" stroke-width="2"/>
</svg>
