<svg width="36" height="32" viewBox="0 0 36 32" fill="none" xmlns="http://www.w3.org/2000/svg">
<path d="M27.1663 31C23.9447 31 21.333 28.3883 21.333 25.1667L21.333 1L32.9997 1L32.9997 25.1667C32.9997 28.3883 30.388 31 27.1663 31Z" stroke="#611F69" stroke-width="2"/>
<path d="M34.6665 1L19.6665 1" stroke="#611F69" stroke-width="2" stroke-linecap="round"/>
<path d="M26.333 7.66666H21.333" stroke="#611F69" stroke-width="2" stroke-linecap="round"/>
<path d="M14.6663 24.125C14.6663 29.1876 11.333 31 7.99967 31C4.66634 31 1.33301 29.1876 1.33301 24.125C1.33301 19.0624 7.99967 12.6667 7.99967 12.6667C7.99967 12.6667 14.6663 19.0624 14.6663 24.125Z" stroke="#611F69" stroke-width="2" stroke-linejoin="round"/>
<path d="M21.333 16C23.1381 14.556 25.162 12.464 27.6179 13.9376C29.6687 15.1681 31.3899 13.874 32.9997 12.6667" stroke="#611F69" stroke-width="2" stroke-linecap="round"/>
</svg>
