<svg width="40" height="40" viewBox="0 0 40 40" fill="none" xmlns="http://www.w3.org/2000/svg">
<path d="M18.7051 10V13.315C18.7051 15.6456 18.7051 16.8109 19.0172 17.9295C19.3292 19.0482 19.9409 20.0754 21.1641 22.1298L22.8217 24.9136C25.9389 30.1487 27.4974 32.7662 26.2188 34.7066L26.199 34.7363C24.9017 36.6667 21.6012 36.6667 15.0002 36.6667C8.39913 36.6667 5.09861 36.6667 3.80133 34.7363L3.78156 34.7066C2.5029 32.7662 4.06147 30.1487 7.17862 24.9136L8.83622 22.1298C10.0595 20.0754 10.6711 19.0482 10.9832 17.9295C11.2952 16.8109 11.2952 15.6456 11.2952 13.315V10" stroke="#611F69" stroke-width="2"/>
<path d="M10 10L20 10" stroke="#611F69" stroke-width="2" stroke-linecap="round" stroke-linejoin="round"/>
<path d="M9.16699 22.1338C10.2781 21.165 12.8911 21.8634 15.0029 22.7738C17.7807 23.9713 20.2781 23.003 20.8337 22.1338" stroke="#611F69" stroke-width="2" stroke-linecap="round"/>
<path d="M19.1667 11.6666C19.1667 15 23.104 18.6869 25.788 18.3333C25.788 21.0947 28.2233 23.3333 31.2273 23.3333C34.2314 23.3333 36.6667 21.0947 36.6667 18.3333C36.6667 15.5719 35 13.3333 31.6667 13.3333C31.6667 9.99998 29.1667 6.66665 25.6332 6.66665C25.6332 4.09475 24.1667 3.33331 22.5 3.33331C20.8333 3.33331 20 4.99998 20 4.99998C20 4.99998 15 4.99998 15 9.99998" stroke="#611F69" stroke-width="2" stroke-linecap="round" stroke-linejoin="round"/>
</svg>
