<svg width="36" height="36" viewBox="0 0 36 36" fill="none" xmlns="http://www.w3.org/2000/svg">
<path d="M1.3335 33.322C2.47556 35.0739 3.95189 35.0739 5.12181 33.322C8.88325 27.568 12.4661 37.4607 15.1218 33.3869C19.1719 27.2824 22.0848 37.8697 25.1218 33.322C29.0822 27.2636 31.5494 37.2959 34.6668 33.9736" stroke="#611F69" stroke-width="2" stroke-linecap="round"/>
<path d="M3.95396 26.3333L1.45818 19.0761C1.00638 17.7624 1.83821 16.3333 3.05471 16.3333H32.7639C37.9205 16.3333 31.3239 26.3333 27.9945 26.3333" stroke="#611F69" stroke-width="2" stroke-linecap="round" stroke-linejoin="round"/>
<path d="M28 16.3333L23.335 10.502C22.0698 8.9206 20.1544 8 18.1292 8H11.3333C9.49238 8 8 9.49238 8 11.3333V16.3333" stroke="#611F69" stroke-width="2" stroke-linecap="round" stroke-linejoin="round"/>
<path d="M14.6668 7.99998V2.99998C14.6668 2.07951 13.9206 1.33331 13.0002 1.33331H11.3335" stroke="#611F69" stroke-width="2" stroke-linecap="round" stroke-linejoin="round"/>
</svg>
