<svg width="40" height="40" viewBox="0 0 40 40" fill="none" xmlns="http://www.w3.org/2000/svg">
<path d="M35.7834 31.6666V8.33331C35.7834 4.99998 34.1167 3.33331 30.7834 3.33331H24.1167C20.7834 3.33331 19.1167 4.99998 19.1167 8.33331V31.6666C19.1167 35 20.7834 36.6666 24.1167 36.6666H30.7834C34.1167 36.6666 35.7834 35 35.7834 31.6666Z" stroke="#611F69" stroke-width="2" stroke-linecap="round"/>
<path d="M19.1167 10H27.45" stroke="#611F69" stroke-width="2" stroke-linecap="round"/>
<path d="M19.1167 30H25.7834" stroke="#611F69" stroke-width="2" stroke-linecap="round"/>
<path d="M19.1167 23.25L27.45 23.3333" stroke="#611F69" stroke-width="2" stroke-linecap="round"/>
<path d="M19.1167 16.6667H24.1167" stroke="#611F69" stroke-width="2" stroke-linecap="round"/>
<path d="M9.15013 3.33331C6.43346 3.33331 4.2168 5.54998 4.2168 8.24998V29.85C4.2168 30.6 4.53346 31.7333 4.9168 32.3833L6.28346 34.65C7.85013 37.2666 10.4335 37.2666 12.0001 34.65L13.3668 32.3833C13.7501 31.7333 14.0668 30.6 14.0668 29.85V8.24998C14.0668 5.54998 11.8501 3.33331 9.15013 3.33331Z" stroke="#611F69" stroke-width="2" stroke-linecap="round"/>
<path d="M14.0668 11.6667H4.2168" stroke="#611F69" stroke-width="2" stroke-linecap="round"/>
</svg>
