<svg width="40" height="30" viewBox="0 0 40 30" fill="none" xmlns="http://www.w3.org/2000/svg">
<path d="M34.6234 25C35.8722 25 36.8656 24.2141 37.7574 23.1152C39.5832 20.8657 36.5855 19.0681 35.4423 18.1877C34.28 17.2927 32.9824 16.7857 31.6667 16.6667M30 13.3333C32.3012 13.3333 34.1667 11.4679 34.1667 9.16667C34.1667 6.86548 32.3012 5 30 5" stroke="#611F69" stroke-width="2" stroke-linecap="round"/>
<path d="M5.37643 25C4.1276 25 3.13428 24.2141 2.24241 23.1152C0.416651 20.8657 3.41429 19.0681 4.55758 18.1877C5.7198 17.2927 7.01747 16.7857 8.33317 16.6667M9.1665 13.3333C6.86532 13.3333 4.99984 11.4679 4.99984 9.16667C4.99984 6.86548 6.86532 5 9.1665 5" stroke="#611F69" stroke-width="2" stroke-linecap="round"/>
<path d="M13.4728 20.1853C11.7699 21.2383 7.30481 23.3885 10.0243 26.079C11.3528 27.3933 12.8324 28.3333 14.6925 28.3333L25.3071 28.3333C27.1673 28.3333 28.6469 27.3933 29.9753 26.079C32.6949 23.3885 28.2298 21.2383 26.5268 20.1853C22.5334 17.716 17.4663 17.716 13.4728 20.1853Z" stroke="#611F69" stroke-width="2" stroke-linecap="round" stroke-linejoin="round"/>
<path d="M25.8332 7.49999C25.8332 10.7217 23.2215 13.3333 19.9998 13.3333C16.7782 13.3333 14.1665 10.7217 14.1665 7.49999C14.1665 4.27833 16.7782 1.66666 19.9998 1.66666C23.2215 1.66666 25.8332 4.27833 25.8332 7.49999Z" stroke="#611F69" stroke-width="2"/>
</svg>
