<svg width="36" height="36" viewBox="0 0 36 36" fill="none" xmlns="http://www.w3.org/2000/svg">
<path d="M34.6668 18C34.6668 8.79521 27.2049 1.33329 18.0002 1.33329C8.79542 1.33329 1.3335 8.79521 1.3335 18C1.3335 27.2047 8.79542 34.6666 18.0002 34.6666C27.2049 34.6666 34.6668 27.2047 34.6668 18Z" stroke="#611F69" stroke-width="2"/>
<path d="M31.3337 7.49829C29.7758 7.61058 27.7804 8.21371 26.3968 10.0046C23.8977 13.2393 21.3987 13.5092 19.7326 12.431C17.2336 10.8136 19.3337 8.19392 16.4005 6.77023C14.4889 5.84235 14.2223 3.3174 15.2863 1.33331" stroke="#611F69" stroke-width="2" stroke-linejoin="round"/>
<path d="M1.3335 16.3333C2.60432 17.4368 4.38426 18.447 6.4814 18.447C10.8142 18.447 11.6808 19.2748 11.6808 22.5863C11.6808 25.8978 11.6808 25.8978 12.5473 28.3814C13.111 29.9969 13.308 31.6123 12.1845 33" stroke="#611F69" stroke-width="2" stroke-linejoin="round"/>
<path d="M34.6668 20.4205C33.1883 19.5684 31.3335 19.2179 29.4558 20.5674C25.8629 23.1497 23.3858 21.01 22.27 23.1482C20.6276 26.2958 26.493 27.2851 21.3335 34.6666" stroke="#611F69" stroke-width="2" stroke-linejoin="round"/>
</svg>
