<svg width="22" height="36" viewBox="0 0 22 36" fill="none" xmlns="http://www.w3.org/2000/svg">
<path d="M1 34.6666L1 20.8239C1 18.2145 1 16.9098 1.35757 15.6795C1.71513 14.4491 2.40981 13.3635 3.79916 11.1923L8.2265 4.27363C9.48085 2.31342 10.108 1.33331 11 1.33331C11.892 1.33331 12.5191 2.31342 13.7735 4.27363L18.2008 11.1923C19.5902 13.3635 20.2849 14.4491 20.6424 15.6795C21 16.9098 21 18.2145 21 20.8239L21 34.6666" stroke="#611F69" stroke-width="2" stroke-linecap="round" stroke-linejoin="round"/>
<path d="M2.6665 16.3333C3.71905 16.8717 5.14767 17.9553 6.46666 17.9985C8.16452 18.0541 9.31123 16.562 10.9998 16.562C12.6884 16.562 13.8352 18.0541 15.533 17.9985C16.852 17.9553 18.2806 16.8717 19.3332 16.3333" stroke="#611F69" stroke-width="2" stroke-linecap="round" stroke-linejoin="round"/>
<path d="M11 18L11 34.6667" stroke="#611F69" stroke-width="2" stroke-linecap="round" stroke-linejoin="round"/>
<path d="M7.6665 6.33331L14.3332 6.33331" stroke="#611F69" stroke-width="2" stroke-linecap="round" stroke-linejoin="round"/>
</svg>
