<svg width="36" height="30" viewBox="0 0 36 30" fill="none" xmlns="http://www.w3.org/2000/svg">
<path d="M1.3335 13.3333C1.3335 7.8336 1.3335 5.08374 3.04204 3.3752C4.75058 1.66666 7.50044 1.66666 13.0002 1.66666L14.6668 1.66666C20.1665 1.66666 22.9164 1.66666 24.625 3.3752C26.3335 5.08374 26.3335 7.8336 26.3335 13.3333V16.6667C26.3335 22.1664 26.3335 24.9162 24.625 26.6248C22.9164 28.3333 20.1665 28.3333 14.6668 28.3333H13.0002C7.50044 28.3333 4.75058 28.3333 3.04204 26.6248C1.3335 24.9162 1.3335 22.1664 1.3335 16.6667L1.3335 13.3333Z" stroke="#611F69" stroke-width="2"/>
<path d="M26.3335 9.84307L26.5434 9.66992C30.0696 6.76036 31.8328 5.30558 33.2498 6.00802C34.6668 6.71045 34.6668 9.03923 34.6668 13.6968V16.3032C34.6668 20.9607 34.6668 23.2895 33.2498 23.9919C31.8328 24.6944 30.0696 23.2396 26.5434 20.33L26.3335 20.1569" stroke="#611F69" stroke-width="2" stroke-linecap="round"/>
<ellipse cx="17.167" cy="10.8333" rx="2.5" ry="2.5" stroke="#611F69" stroke-width="2"/>
</svg>
