<svg width="40" height="40" viewBox="0 0 40 40" fill="none" xmlns="http://www.w3.org/2000/svg">
<path d="M8.43112 19.5702C11.6287 19.9634 14.552 17.5891 14.9606 14.2669C15.3692 10.9448 11.5649 7.74305 12.9469 3.33331C6.10811 4.32412 3.7511 9.8352 3.3812 12.8428C2.97263 16.165 5.23355 19.1769 8.43112 19.5702Z" stroke="#611F69" stroke-width="2.5" stroke-linejoin="round"/>
<path d="M11.6668 33.3333C8.4591 25.5402 7.95003 18.6569 8.55475 13.3333" stroke="#611F69" stroke-width="2.5" stroke-linecap="round" stroke-linejoin="round"/>
<path d="M15.8464 29.4469C17.8046 33.4337 22.5343 34.5332 26.4105 31.9025C30.2866 29.2719 30.8963 21.983 36.6667 19.4419C30.509 12.6208 22.8285 15.0833 19.3193 17.4649C15.4431 20.0955 13.8883 25.4601 15.8464 29.4469Z" stroke="#611F69" stroke-width="2.5" stroke-linejoin="round"/>
<path d="M10 36.6666C13.963 29.8407 18.7739 25.7167 23.3333 23.3333" stroke="#611F69" stroke-width="2.5" stroke-linecap="round" stroke-linejoin="round"/>
</svg>
