<svg width="36" height="36" viewBox="0 0 36 36" fill="none" xmlns="http://www.w3.org/2000/svg">
<path d="M1.91915 20.0224C1.33078 16.1937 1.0366 14.2794 1.76044 12.5823C2.48428 10.8852 4.09021 9.72406 7.30206 7.40178L9.70181 5.66668C13.6973 2.77779 15.6951 1.33334 18.0002 1.33334C20.3053 1.33334 22.303 2.77779 26.2985 5.66668L28.6983 7.40178C31.9101 9.72406 33.516 10.8852 34.2399 12.5823C34.9637 14.2794 34.6695 16.1937 34.0812 20.0224L33.5795 23.2873C32.7454 28.7149 32.3283 31.4287 30.3818 33.0477C28.4353 34.6667 25.5896 34.6667 19.8982 34.6667H16.1021C10.4107 34.6667 7.56501 34.6667 5.61849 33.0477C3.67198 31.4287 3.25494 28.7149 2.42087 23.2873L1.91915 20.0224Z" stroke="#611F69" stroke-width="2" stroke-linejoin="round"/>
<path d="M16.75 20.0833C18.728 22.0614 21.3333 24.0714 21.3333 24.0714L24.9048 20.5C24.9048 20.5 22.8947 17.8947 20.9167 15.9167C18.9386 13.9387 16.3333 11.9286 16.3333 11.9286L12.7619 15.5C12.7619 15.5 14.772 18.1053 16.75 20.0833ZM16.75 20.0833L10.5 26.3333M25.5 19.9048L20.7381 24.6667M16.9286 11.3333L12.1667 16.0952" stroke="#611F69" stroke-width="2" stroke-linecap="round" stroke-linejoin="round"/>
</svg>
