<svg width="40" height="40" viewBox="0 0 40 40" fill="none" xmlns="http://www.w3.org/2000/svg">
<path d="M23.3335 3.33331L16.6668 3.33331C11.2014 3.33331 8.46876 3.33331 6.53167 4.68967C5.81501 5.19149 5.19167 5.81482 4.68986 6.53149C3.3335 8.46857 3.3335 11.2013 3.3335 16.6666C3.3335 22.132 3.3335 24.8647 4.68986 26.8018C5.19167 27.5185 5.81501 28.1418 6.53167 28.6436C8.46876 30 11.2014 30 16.6668 30H23.3335C28.7989 30 31.5316 30 33.4687 28.6436C34.1853 28.1418 34.8087 27.5185 35.3105 26.8018C36.6668 24.8647 36.6668 22.132 36.6668 16.6666C36.6668 11.2013 36.6668 8.46857 35.3105 6.53149C34.8087 5.81482 34.1853 5.19149 33.4687 4.68967C31.5316 3.33331 28.7989 3.33331 23.3335 3.33331Z" stroke="#611F69" stroke-width="2" stroke-linecap="round"/>
<path d="M26.6667 13.3333L28.7109 15.0953C29.5703 15.836 30 16.2064 30 16.6666C30 17.1269 29.5703 17.4973 28.7109 18.238L26.6667 20" stroke="#611F69" stroke-width="2" stroke-linecap="round" stroke-linejoin="round"/>
<path d="M13.3333 13.3333L11.2891 15.0953C10.4297 15.836 10 16.2064 10 16.6666C10 17.1269 10.4297 17.4973 11.2891 18.238L13.3333 20" stroke="#611F69" stroke-width="2" stroke-linecap="round" stroke-linejoin="round"/>
<path d="M21.6668 11.6666L18.3335 21.6666" stroke="#611F69" stroke-width="2" stroke-linecap="round" stroke-linejoin="round"/>
<path d="M24.4266 36.6667L23.7285 35.9686C22.1547 34.3948 21.7646 31.9906 22.7599 30" stroke="#611F69" stroke-width="2" stroke-linecap="round"/>
<path d="M15.0012 36.6667L15.6993 35.9686C17.273 34.3948 17.6632 31.9906 16.6678 30" stroke="#611F69" stroke-width="2" stroke-linecap="round"/>
<path d="M11.667 36.6666L28.3337 36.6666" stroke="#611F69" stroke-width="2" stroke-linecap="round"/>
</svg>
