<svg width="40" height="40" viewBox="0 0 40 40" fill="none" xmlns="http://www.w3.org/2000/svg">
<path d="M5.8334 34.1667C7.21673 35.55 9.45007 35.55 10.8334 34.1667L32.5001 12.5C33.8834 11.1167 33.8834 8.88336 32.5001 7.50002C31.1167 6.11669 28.8834 6.11669 27.5001 7.50002L5.8334 29.1667C4.45007 30.55 4.45007 32.7834 5.8334 34.1667Z" stroke="#611F69" stroke-width="2" stroke-linecap="round" stroke-linejoin="round"/>
<path d="M30.0166 14.9833L25.0166 9.98334" stroke="#611F69" stroke-width="2" stroke-linecap="round" stroke-linejoin="round"/>
<path d="M14.1665 4.06665L16.6665 3.33331L15.9332 5.83331L16.6665 8.33331L14.1665 7.59998L11.6665 8.33331L12.3998 5.83331L11.6665 3.33331L14.1665 4.06665Z" stroke="#611F69" stroke-width="1.5" stroke-linecap="round" stroke-linejoin="round"/>
<path d="M7.5 14.0666L10 13.3333L9.26667 15.8333L10 18.3333L7.5 17.6L5 18.3333L5.73333 15.8333L5 13.3333L7.5 14.0666Z" stroke="#611F69" stroke-width="1.5" stroke-linecap="round" stroke-linejoin="round"/>
<path d="M32.5 22.4L35 21.6667L34.2667 24.1667L35 26.6667L32.5 25.9334L30 26.6667L30.7333 24.1667L30 21.6667L32.5 22.4Z" stroke="#611F69" stroke-width="1.5" stroke-linecap="round" stroke-linejoin="round"/>
</svg>
