<svg width="68" height="68" viewBox="0 0 68 68" fill="none" xmlns="http://www.w3.org/2000/svg">
<path d="M48.167 30.6126C48.167 29.6334 48.167 29.1437 48.3145 28.7072C48.7429 27.4392 49.872 26.9472 51.0034 26.4318C52.2753 25.8525 52.9112 25.5629 53.5414 25.5119C54.2566 25.4541 54.9733 25.6082 55.5847 25.9513C56.3952 26.4062 56.9606 27.2706 57.5393 27.9735C60.2122 31.2201 61.5487 32.8433 62.0377 34.6334C62.4323 36.078 62.4323 37.5887 62.0377 39.0333C61.3244 41.6441 59.071 43.8327 57.4031 45.8586C56.5499 46.8949 56.1233 47.4131 55.5847 47.7154C54.9733 48.0585 54.2566 48.2126 53.5414 48.1548C52.9112 48.1038 52.2753 47.8141 51.0034 47.2348C49.872 46.7195 48.7429 46.2274 48.3145 44.9594C48.167 44.5229 48.167 44.0333 48.167 43.0541L48.167 30.6126Z" stroke="#611F69" stroke-width="4"/>
<path d="M19.834 30.6124C19.834 29.3792 19.7994 28.2709 18.8024 27.4039C18.4398 27.0885 17.959 26.8696 16.9976 26.4316C15.7257 25.8523 15.0897 25.5627 14.4596 25.5117C12.5691 25.3588 11.5519 26.6491 10.4617 27.9733C7.78877 31.2199 6.45232 32.8431 5.9633 34.6332C5.56866 36.0778 5.56866 37.5885 5.9633 39.0331C6.67656 41.6439 8.92996 43.8325 10.5979 45.8584C11.6493 47.1354 12.6537 48.3006 14.4596 48.1546C15.0897 48.1036 15.7257 47.8139 16.9976 47.2346C17.959 46.7967 18.4398 46.5777 18.8024 46.2624C19.7994 45.3953 19.834 44.2871 19.834 43.0538L19.834 30.6124Z" stroke="#611F69" stroke-width="4"/>
<path d="M14.167 25.5C14.167 16.1112 23.0467 8.5 34.0003 8.5C44.954 8.5 53.8337 16.1112 53.8337 25.5" stroke="#611F69" stroke-width="4" stroke-linecap="square" stroke-linejoin="round"/>
<path d="M53.834 48.1667V50.4334C53.834 55.4407 48.7599 59.5 42.5007 59.5H36.834" stroke="#611F69" stroke-width="4" stroke-linecap="round" stroke-linejoin="round"/>
</svg>
