<svg width="62" height="54" viewBox="0 0 62 54" fill="none" xmlns="http://www.w3.org/2000/svg">
<path d="M36.6693 2.91638C47.3544 2.91638 52.697 2.91638 56.0165 6.4433C59.3359 9.97023 59.3359 15.6467 59.3359 26.9997C59.3359 38.3527 59.3359 44.0292 56.0165 47.5561C52.697 51.0831 47.3544 51.083 36.6693 51.083L25.3359 51.083C14.6508 51.083 9.30819 51.083 5.98873 47.5561C2.66927 44.0292 2.66927 38.3527 2.66927 26.9997C2.66927 15.6467 2.66927 9.97022 5.98873 6.4433C9.30819 2.91638 14.6508 2.91638 25.3359 2.91638L36.6693 2.91638Z" stroke="#611F69" stroke-width="4" stroke-linejoin="round"/>
<path d="M11.1689 36.9164C15.7268 30.8606 26.3383 30.53 31.0023 36.9164M26.0412 22.0418C26.0412 24.7802 23.8213 27.0001 21.0828 27.0001C18.3444 27.0001 16.1245 24.7802 16.1245 22.0418C16.1245 19.3034 18.3444 17.0834 21.0828 17.0834C23.8213 17.0834 26.0412 19.3034 26.0412 22.0418Z" stroke="#611F69" stroke-width="4" stroke-linecap="round"/>
<path d="M39.502 19.9164L50.8353 19.9164" stroke="#611F69" stroke-width="4" stroke-linecap="round"/>
<path d="M39.502 31.2497L45.1686 31.2497" stroke="#611F69" stroke-width="4" stroke-linecap="round"/>
</svg>
