<svg width="62" height="56" viewBox="0 0 62 56" fill="none" xmlns="http://www.w3.org/2000/svg">
<path d="M2.66699 16.6667C2.66699 20.4684 25.6345 30.8333 31.0003 30.8333C36.3662 30.8333 59.3337 20.4684 59.3337 16.6667C59.3337 12.865 36.3662 2.5 31.0003 2.5C25.6345 2.5 2.66699 12.865 2.66699 16.6667Z" stroke="#611F69" stroke-width="4" stroke-linecap="round" stroke-linejoin="round"/>
<path d="M14 25.1667L17.5497 41.5981C17.7928 42.7236 18.3541 43.7751 19.29 44.4458C25.5929 48.9625 36.4071 48.9625 42.71 44.4458C43.6459 43.7751 44.2072 42.7236 44.4503 41.5981L48 25.1667" stroke="#611F69" stroke-width="4" stroke-linecap="round" stroke-linejoin="round"/>
<path d="M57.084 20.9167C57.084 19.8121 56.1886 18.9167 55.084 18.9167C53.9794 18.9167 53.084 19.8121 53.084 20.9167H57.084ZM51.0364 49.9964L52.9822 50.4586L51.0364 49.9964ZM59.1316 49.9964L61.0775 49.5341L61.0775 49.5341L59.1316 49.9964ZM53.084 20.9167L53.084 40.7704H57.084L57.084 20.9167H53.084ZM52.9822 50.4586C53.396 48.7166 54.1072 47.1274 54.8646 45.6453C55.5624 44.2797 56.4617 42.7267 56.9442 41.5051L53.2238 40.0357C52.833 41.0252 52.1764 42.1155 51.3027 43.8252C50.4886 45.4184 49.6126 47.3366 49.0905 49.5341L52.9822 50.4586ZM61.0775 49.5341C60.5554 47.3366 59.6794 45.4184 58.8653 43.8252C57.9916 42.1155 57.3349 41.0252 56.9442 40.0357L53.2238 41.5051C53.7063 42.7267 54.6055 44.2797 55.3034 45.6453C56.0608 47.1274 56.7719 48.7166 57.1858 50.4586L61.0775 49.5341ZM55.9778 51.5H54.1902V55.5H55.9778V51.5ZM49.0905 49.5341C48.7417 51.0026 48.549 52.886 49.884 54.225C50.5103 54.8531 51.2854 55.151 51.977 55.3044C52.6666 55.4573 53.4272 55.5 54.1902 55.5V51.5C53.5399 51.5 53.1152 51.4596 52.8431 51.3993C52.573 51.3394 52.6099 51.2937 52.7167 51.4008C52.8552 51.5398 52.8485 51.6631 52.8384 51.5552C52.8241 51.4029 52.8369 51.0701 52.9822 50.4586L49.0905 49.5341ZM57.1858 50.4586C57.331 51.0701 57.3438 51.4029 57.3296 51.5552C57.3195 51.6631 57.3128 51.5398 57.4513 51.4008C57.5581 51.2937 57.5949 51.3394 57.3249 51.3993C57.0527 51.4596 56.628 51.5 55.9778 51.5V55.5C56.7408 55.5 57.5013 55.4573 58.1909 55.3044C58.8826 55.151 59.6577 54.8531 60.284 54.225C61.619 52.886 61.4263 51.0026 61.0775 49.5341L57.1858 50.4586Z" fill="#611F69"/>
</svg>
