<svg width="68" height="68" viewBox="0 0 68 68" fill="none" xmlns="http://www.w3.org/2000/svg">
<path d="M61.3699 29.58L58.5932 41.4233C56.2132 51.6517 51.5099 55.7883 42.6699 54.9383C41.2532 54.825 39.7232 54.57 38.0799 54.1733L33.3199 53.04C21.5049 50.235 17.8499 44.3983 20.6265 32.555L23.4032 20.6833C23.9699 18.275 24.6499 16.1783 25.4999 14.45C28.8149 7.59334 34.4532 5.75167 43.9165 7.99L48.6482 9.095C60.5199 11.8717 64.1465 17.7367 61.3699 29.58Z" stroke="#611F69" stroke-width="4" stroke-linecap="round" stroke-linejoin="round"/>
<path d="M42.67 54.9383C40.9133 56.1283 38.7033 57.12 36.0117 57.9983L31.535 59.4717C20.2867 63.0983 14.365 60.0667 10.71 48.8183L7.08332 37.6267C3.45666 26.3783 6.45999 20.4283 17.7083 16.8017L22.185 15.3283C23.3467 14.96 24.4517 14.6483 25.5 14.45C24.65 16.1783 23.97 18.275 23.4033 20.6833L20.6267 32.555C17.85 44.3983 21.505 50.235 33.32 53.04L38.08 54.1733C39.7233 54.57 41.2533 54.825 42.67 54.9383Z" stroke="#611F69" stroke-width="4" stroke-linecap="round" stroke-linejoin="round"/>
<path d="M35.8135 24.1683L49.5551 27.6533" stroke="#611F69" stroke-width="4" stroke-linecap="round" stroke-linejoin="round"/>
<path d="M33.0371 35.1333L41.2538 37.23" stroke="#611F69" stroke-width="4" stroke-linecap="round" stroke-linejoin="round"/>
</svg>
