<svg width="54" height="62" viewBox="0 0 54 62" fill="none" xmlns="http://www.w3.org/2000/svg">
<path d="M14.2497 6.91666C9.84157 7.0489 7.21341 7.53953 5.39487 9.35977C2.90527 11.8517 2.90527 15.8623 2.90527 23.8837L2.90527 42.3175C2.90527 50.3388 2.90527 54.3495 5.39487 56.8414C7.88446 59.3333 11.8914 59.3333 19.9053 59.3333L34.0719 59.3333C42.0858 59.3333 46.0928 59.3333 48.5823 56.8414C51.0719 54.3495 51.0719 50.3388 51.0719 42.3175V23.8837C51.0719 15.8623 51.0719 11.8517 48.5823 9.35977C46.7638 7.53953 44.1356 7.0489 39.7275 6.91666" stroke="#611F69" stroke-width="4"/>
<path d="M14.2383 7.62499C14.2383 4.88658 16.4582 2.66666 19.1966 2.66666H34.7799C37.5184 2.66666 39.7383 4.88658 39.7383 7.62499C39.7383 10.3634 37.5184 12.5833 34.7799 12.5833H19.1966C16.4582 12.5833 14.2383 10.3634 14.2383 7.62499Z" stroke="#611F69" stroke-width="4" stroke-linejoin="round"/>
<path d="M31.25 28.1667L41.1667 28.1667" stroke="#611F69" stroke-width="4" stroke-linecap="round"/>
<path d="M12.833 31C12.833 31 14.2497 31 15.6663 33.8333C15.6663 33.8333 20.1663 26.75 24.1663 25.3333" stroke="#611F69" stroke-width="4" stroke-linecap="round" stroke-linejoin="round"/>
<path d="M31.25 45.1667H41.1667" stroke="#611F69" stroke-width="4" stroke-linecap="round"/>
<path d="M15.666 45.1667H18.4993" stroke="#611F69" stroke-width="4" stroke-linecap="round" stroke-linejoin="round"/>
</svg>
