<svg width="40" height="40" viewBox="0 0 40 40" fill="none" xmlns="http://www.w3.org/2000/svg">
<path d="M3.3335 20C3.3335 13.8514 3.3335 10.7772 4.68986 8.59795C5.19167 7.7917 5.81501 7.09045 6.53167 6.5259C8.46876 5 11.2014 5 16.6668 5H23.3335C28.7989 5 31.5316 5 33.4687 6.5259C34.1853 7.09045 34.8087 7.7917 35.3105 8.59795C36.6668 10.7772 36.6668 13.8514 36.6668 20C36.6668 26.1486 36.6668 29.2228 35.3105 31.4021C34.8087 32.2083 34.1853 32.9096 33.4687 33.4741C31.5316 35 28.7989 35 23.3335 35H16.6668C11.2014 35 8.46876 35 6.53167 33.4741C5.81501 32.9096 5.19167 32.2083 4.68986 31.4021C3.3335 29.2228 3.3335 26.1486 3.3335 20Z" stroke="#611F69" stroke-width="2"/>
<path d="M20 5L20 35" stroke="#611F69" stroke-width="2" stroke-linejoin="round"/>
<path d="M8.3335 11.6666H10.0002M8.3335 16.6666H10.0002" stroke="#611F69" stroke-width="2" stroke-linecap="round" stroke-linejoin="round"/>
<path d="M30 23.3334H31.6667M30 28.3334H31.6667" stroke="#611F69" stroke-width="2" stroke-linecap="round" stroke-linejoin="round"/>
</svg>
