<svg width="40" height="40" viewBox="0 0 40 40" fill="none" xmlns="http://www.w3.org/2000/svg">
<path d="M35.9599 37.3739C36.3504 37.7644 36.9836 37.7644 37.3741 37.3739C37.7646 36.9833 37.7646 36.3502 37.3741 35.9596L35.9599 37.3739ZM32.9599 34.3739L35.9599 37.3739L37.3741 35.9596L34.3741 32.9596L32.9599 34.3739ZM36.167 28.4167C36.167 24.1365 32.6972 20.6667 28.417 20.6667V22.6667C31.5926 22.6667 34.167 25.2411 34.167 28.4167H36.167ZM28.417 20.6667C24.1368 20.6667 20.667 24.1365 20.667 28.4167H22.667C22.667 25.2411 25.2414 22.6667 28.417 22.6667V20.6667ZM20.667 28.4167C20.667 32.697 24.1368 36.1667 28.417 36.1667V34.1667C25.2414 34.1667 22.667 31.5924 22.667 28.4167H20.667ZM28.417 36.1667C32.6972 36.1667 36.167 32.697 36.167 28.4167H34.167C34.167 31.5924 31.5926 34.1667 28.417 34.1667V36.1667Z" fill="#611F69"/>
<path d="M36.6668 20.0001C36.6668 10.7953 29.2049 3.33341 20.0002 3.33341C10.7954 3.33341 3.3335 10.7953 3.3335 20.0001C3.3335 29.2048 10.7954 36.6667 20.0002 36.6667" stroke="#611F69" stroke-width="2" stroke-linecap="round"/>
<path d="M33.3337 9.49835C31.7758 9.61064 29.7804 10.2138 28.3968 12.0047C25.8977 15.2394 23.3987 15.5093 21.7326 14.4311C19.2336 12.8137 21.3337 10.194 18.4005 8.7703C16.4889 7.84241 16.2223 5.31746 17.2863 3.33337" stroke="#611F69" stroke-width="2" stroke-linejoin="round"/>
<path d="M3.3335 18.3334C4.60432 19.4369 6.38426 20.447 8.4814 20.447C12.8142 20.447 13.6808 21.2749 13.6808 24.5864C13.6808 27.8978 13.6808 27.8978 14.5473 30.3814C15.111 31.9969 15.308 33.6124 14.1845 35" stroke="#611F69" stroke-width="2" stroke-linejoin="round"/>
</svg>
