<svg width="36" height="36" viewBox="0 0 36 36" fill="none" xmlns="http://www.w3.org/2000/svg">
<path d="M26.3337 18.0001C26.3337 22.6025 22.6027 26.3334 18.0003 26.3334C13.398 26.3334 9.66699 22.6025 9.66699 18.0001C9.66699 13.3977 13.398 9.66675 18.0003 9.66675" stroke="#611F69" stroke-width="2" stroke-linecap="round"/>
<path d="M21.3335 1.66677C20.2565 1.44814 19.1417 1.33337 18.0002 1.33337C8.79542 1.33337 1.3335 8.79529 1.3335 18C1.3335 27.2048 8.79542 34.6667 18.0002 34.6667C27.2049 34.6667 34.6668 27.2048 34.6668 18C34.6668 16.8585 34.5521 15.7437 34.3334 14.6667" stroke="#611F69" stroke-width="2" stroke-linecap="round"/>
<path d="M25.6719 10.3282L18 18M25.6719 10.3282L25.1302 8.25219C24.7199 6.67955 25.2816 4.86529 26.5811 3.56578L28.4967 1.65014C29.0068 1.14006 29.7965 1.2662 29.9575 1.88349L30.8181 5.1819L34.1165 6.0425C34.7338 6.20356 34.86 6.99323 34.3499 7.50331L32.4343 9.41895C31.1348 10.7185 29.3205 11.2801 27.7478 10.8698L25.6719 10.3282Z" stroke="#611F69" stroke-width="2" stroke-linecap="round" stroke-linejoin="round"/>
</svg>
