<svg width="370" height="370" viewBox="0 0 370 370" fill="none" xmlns="http://www.w3.org/2000/svg">
<g clip-path="url(#clip0_67_562)">
<rect width="370" height="370" rx="24" fill="#FEEADF"/>
<path opacity="0.1" d="M342.631 224.11C356.082 230.757 367.507 240.885 375.719 253.442C383.931 265.999 388.63 280.526 389.327 295.513C390.025 310.501 386.695 325.402 379.685 338.667C372.674 351.932 362.238 363.077 349.463 370.944C336.687 378.811 322.037 383.113 307.036 383.402C292.035 383.691 277.231 379.957 264.161 372.588C251.092 365.219 240.235 354.484 232.719 341.498C225.202 328.513 221.301 313.752 221.421 298.749L258.539 299.044C258.473 307.417 260.65 315.656 264.845 322.903C269.04 330.15 275.099 336.141 282.393 340.254C289.687 344.366 297.949 346.45 306.321 346.289C314.693 346.128 322.869 343.727 329.999 339.336C337.129 334.946 342.953 328.726 346.866 321.322C350.778 313.919 352.637 305.603 352.248 297.239C351.858 288.874 349.236 280.767 344.653 273.759C340.07 266.751 333.693 261.098 326.186 257.389L342.631 224.11Z" fill="#611F69"/>
</g>
<defs>
<clipPath id="clip0_67_562">
<rect width="370" height="370" fill="white"/>
</clipPath>
</defs>
</svg>
