<svg width="20" height="20" viewBox="0 0 20 20" fill="none" xmlns="http://www.w3.org/2000/svg">
<path d="M8.6866 1.14368C9.43948 0.488085 10.5605 0.488085 11.3134 1.14368L11.6451 1.43253C12.0852 1.81571 12.6706 1.98762 13.248 1.90317L13.6832 1.83951C14.671 1.69503 15.6141 2.30111 15.893 3.25966L16.0159 3.682C16.1789 4.24226 16.5785 4.70339 17.1098 4.94449L17.5104 5.12624C18.4195 5.53874 18.8852 6.55847 18.6016 7.51566L18.4767 7.93739C18.3109 8.49686 18.3977 9.10081 18.7144 9.59091L18.9531 9.96036C19.4949 10.7989 19.3353 11.9085 18.5793 12.5604L18.2461 12.8476C17.8042 13.2287 17.5508 13.7837 17.5522 14.3672L17.5533 14.8071C17.5557 15.8054 16.8216 16.6526 15.8331 16.7923L15.3975 16.8538C14.8198 16.9354 14.3065 17.2653 13.9922 17.7569L13.7553 18.1276C13.2176 18.9687 12.142 19.2845 11.2349 18.8676L10.8353 18.6839C10.3051 18.4402 9.69492 18.4402 9.16474 18.6839L8.76508 18.8676C7.858 19.2845 6.78237 18.9687 6.24469 18.1276L6.00779 17.7569C5.69352 17.2653 5.18022 16.9354 4.60246 16.8538L4.16693 16.7923C3.17843 16.6526 2.44431 15.8054 2.44675 14.8071L2.44782 14.3672C2.44924 13.7837 2.19577 13.2287 1.75386 12.8476L1.42074 12.5604C0.664672 11.9085 0.505132 10.7989 1.04691 9.96036L1.28561 9.59091C1.60227 9.10081 1.6891 8.49686 1.52335 7.93739L1.3984 7.51566C1.11481 6.55847 1.5805 5.53874 2.48961 5.12624L2.89016 4.94449C3.42152 4.70339 3.82109 4.24226 3.98412 3.682L4.10701 3.25966C4.38593 2.30111 5.32901 1.69503 6.31681 1.83951L6.75204 1.90317C7.32939 1.98762 7.91484 1.81571 8.35488 1.43253L8.6866 1.14368Z" fill="#611F69"/>
<path d="M6.6665 11.1905C6.6665 11.1905 7.38079 11.1905 8.33317 12.8571C8.33317 12.8571 10.9802 8.49206 13.3332 7.61905" stroke="white" stroke-width="2" stroke-linecap="round" stroke-linejoin="round"/>
</svg>
