<svg width="62" height="56" viewBox="0 0 62 56" fill="none" xmlns="http://www.w3.org/2000/svg">
<path d="M11.6772 37.3397C8.11405 39.4282 -1.22824 43.6927 4.46184 49.0289C7.2414 51.6357 10.3371 53.5 14.2292 53.5L36.4381 53.5C40.3302 53.5 43.4259 51.6357 46.2055 49.0289C51.8956 43.6927 42.5533 39.4282 38.9901 37.3397C30.6347 32.4423 20.0326 32.4423 11.6772 37.3397Z" stroke="#611F69" stroke-width="4" stroke-linecap="round" stroke-linejoin="round"/>
<path d="M36.6667 13.8333C36.6667 20.0926 31.5926 25.1667 25.3333 25.1667C19.0741 25.1667 14 20.0926 14 13.8333C14 7.57411 19.0741 2.5 25.3333 2.5C31.5926 2.5 36.6667 7.57411 36.6667 13.8333Z" stroke="#611F69" stroke-width="4"/>
<path d="M45.167 10.1905C45.167 10.1905 48.0003 11.6679 49.417 13.8333C49.417 13.8333 53.667 5.33333 59.3337 2.5" stroke="#611F69" stroke-width="4" stroke-linecap="round" stroke-linejoin="round"/>
</svg>
