<svg width="68" height="68" viewBox="0 0 68 68" fill="none" xmlns="http://www.w3.org/2000/svg">
<path d="M62.3337 33.9999C62.3337 18.3519 49.6484 5.66659 34.0003 5.66659C18.3523 5.66659 5.66699 18.3519 5.66699 33.9999C5.66699 49.648 18.3523 62.3333 34.0003 62.3333C49.6484 62.3333 62.3337 49.648 62.3337 33.9999Z" stroke="#611F69" stroke-width="4"/>
<path d="M56.6673 16.1471C54.0189 16.338 50.6268 17.3633 48.2747 20.4078C44.0263 25.9068 39.7779 26.3657 36.9456 24.5327C32.6972 21.7832 36.2673 17.3297 31.281 14.9094C28.0312 13.332 27.5781 9.03958 29.3868 5.66663" stroke="#611F69" stroke-width="4" stroke-linejoin="round"/>
<path d="M5.66699 31.1666C7.8274 33.0426 10.8533 34.7598 14.4184 34.7598C21.7842 34.7598 23.2574 36.1672 23.2574 41.7967C23.2574 47.4262 23.2574 47.4262 24.7305 51.6483C25.6888 54.3947 26.0237 57.141 24.1137 59.5" stroke="#611F69" stroke-width="4" stroke-linejoin="round"/>
<path d="M62.3337 38.1149C59.8202 36.6663 56.667 36.0705 53.475 38.3646C47.367 42.7544 43.1558 39.117 41.2591 42.7519C38.467 48.1028 48.4382 49.7847 39.667 62.3333" stroke="#611F69" stroke-width="4" stroke-linejoin="round"/>
</svg>
