<svg width="68" height="68" viewBox="0 0 68 68" fill="none" xmlns="http://www.w3.org/2000/svg">
<path d="M38.25 56.6666C38.25 56.6666 41.0833 56.6666 43.9167 62.3333C43.9167 62.3333 52.9167 48.1666 60.9167 45.3333" stroke="#611F69" stroke-width="4" stroke-linecap="round" stroke-linejoin="round"/>
<path d="M19.833 45.3333H31.1663M19.833 31.1666H42.4997" stroke="#611F69" stroke-width="4" stroke-linecap="round"/>
<path d="M18.4167 9.91663C14.0086 10.0489 11.3804 10.5395 9.56186 12.3597C7.07227 14.8516 7.07227 18.8623 7.07227 26.8837L7.07227 45.3175C7.07227 53.3388 7.07227 57.3495 9.56186 59.8414C12.0515 62.3333 16.0584 62.3333 24.0723 62.3333L31.1556 62.3333M43.8945 9.91663C48.3026 10.0489 50.9308 10.5395 52.7493 12.3597C55.2389 14.8516 55.2389 18.8623 55.2389 26.8837V38.25" stroke="#611F69" stroke-width="4" stroke-linecap="round"/>
<path d="M18.4053 10.625C18.4053 7.88655 20.6252 5.66663 23.3636 5.66663H38.9469C41.6853 5.66663 43.9053 7.88655 43.9053 10.625C43.9053 13.3634 41.6853 15.5833 38.9469 15.5833H23.3636C20.6252 15.5833 18.4053 13.3634 18.4053 10.625Z" stroke="#611F69" stroke-width="4" stroke-linejoin="round"/>
</svg>
