<svg width="62" height="62" viewBox="0 0 62 62" fill="none" xmlns="http://www.w3.org/2000/svg">
<path d="M22.4536 2.66663C14.5015 2.84781 9.8568 3.60478 6.68329 6.76728C3.9058 9.53514 2.97735 13.426 2.66699 19.6666M39.5471 2.66663C47.4991 2.84781 52.1439 3.60478 55.3174 6.76728C58.0948 9.53514 59.0233 13.426 59.3337 19.6666M39.5471 59.3333C47.4991 59.1521 52.1439 58.3951 55.3174 55.2326C58.0948 52.4648 59.0233 48.5739 59.3337 42.3333M22.4536 59.3333C14.5015 59.1521 9.8568 58.3951 6.68329 55.2326C3.90581 52.4648 2.97735 48.5739 2.66699 42.3333" stroke="#611F69" stroke-width="4" stroke-linecap="round" stroke-linejoin="round"/>
<path d="M18.25 45.1666C24.8565 38.2471 37.0725 37.9213 43.75 45.1666M38.0694 23.9166C38.0694 27.8286 34.8936 30.9999 30.976 30.9999C27.0584 30.9999 23.8826 27.8286 23.8826 23.9166C23.8826 20.0046 27.0584 16.8333 30.976 16.8333C34.8936 16.8333 38.0694 20.0046 38.0694 23.9166Z" stroke="#611F69" stroke-width="4" stroke-linecap="round"/>
</svg>
